<svg xmlns="http://www.w3.org/2000/svg" xmlns:xlink="http://www.w3.org/1999/xlink" width="83" height="83" viewBox="0 0 83 83">
  <defs>
    <clipPath id="clip-path">
      <rect id="Rectangle_12" data-name="Rectangle 12" width="83" height="83" transform="translate(973 1971)" fill="#fff" stroke="#707070" stroke-width="1"/>
    </clipPath>
  </defs>
  <g id="Mask_Group_4" data-name="Mask Group 4" transform="translate(-973 -1971)" clip-path="url(#clip-path)">
    <g id="review" transform="translate(973 1971)">
      <g id="Group_7" data-name="Group 7" transform="translate(8.646 41.5)">
        <path id="Path_9" data-name="Path 9" d="M74.4,63.833A1.634,1.634,0,0,1,72.667,62.1V53.458H13.875V62.1a1.634,1.634,0,0,1-1.729,1.729A1.634,1.634,0,0,1,10.417,62.1V51.729A1.634,1.634,0,0,1,12.146,50H74.4a1.634,1.634,0,0,1,1.729,1.729V62.1A1.634,1.634,0,0,1,74.4,63.833Z" transform="translate(-10.417 -50)"/>
      </g>
      <g id="Group_8" data-name="Group 8" transform="translate(39.771 25.938)">
        <path id="Path_10" data-name="Path 10" d="M49.646,60.646a1.634,1.634,0,0,1-1.729-1.729V32.979a1.729,1.729,0,0,1,3.458,0V58.917A1.634,1.634,0,0,1,49.646,60.646Z" transform="translate(-47.917 -31.25)"/>
      </g>
      <g id="Group_9" data-name="Group 9" transform="translate(36.313 58.792)">
        <path id="Path_11" data-name="Path 11" d="M48.938,81.208a5.188,5.188,0,1,1,5.187-5.187A5.319,5.319,0,0,1,48.938,81.208Zm0-6.917a1.729,1.729,0,1,0,1.729,1.729A1.634,1.634,0,0,0,48.938,74.292Z" transform="translate(-43.75 -70.833)"/>
      </g>
      <g id="Group_10" data-name="Group 10" transform="translate(31.125 72.625)">
        <path id="Path_12" data-name="Path 12" d="M56.521,97.875a1.634,1.634,0,0,1-1.729-1.729V94.417a3.267,3.267,0,0,0-3.458-3.458H44.417a3.267,3.267,0,0,0-3.458,3.458v1.729a1.729,1.729,0,1,1-3.458,0V94.417A6.937,6.937,0,0,1,44.417,87.5h6.917a6.937,6.937,0,0,1,6.917,6.917v1.729A1.634,1.634,0,0,1,56.521,97.875Z" transform="translate(-37.5 -87.5)"/>
      </g>
      <g id="Group_11" data-name="Group 11" transform="translate(67.438 58.792)">
        <path id="Path_13" data-name="Path 13" d="M86.438,81.208a5.188,5.188,0,1,1,5.188-5.187A5.319,5.319,0,0,1,86.438,81.208Zm0-6.917a1.729,1.729,0,1,0,1.729,1.729A1.634,1.634,0,0,0,86.438,74.292Z" transform="translate(-81.25 -70.833)"/>
      </g>
      <g id="Group_12" data-name="Group 12" transform="translate(62.25 72.625)">
        <path id="Path_14" data-name="Path 14" d="M94.021,97.875a1.634,1.634,0,0,1-1.729-1.729V94.417a3.267,3.267,0,0,0-3.458-3.458H81.917a3.267,3.267,0,0,0-3.458,3.458v1.729a1.729,1.729,0,1,1-3.458,0V94.417A6.937,6.937,0,0,1,81.917,87.5h6.917a6.937,6.937,0,0,1,6.917,6.917v1.729A1.634,1.634,0,0,1,94.021,97.875Z" transform="translate(-75 -87.5)"/>
      </g>
      <g id="Group_13" data-name="Group 13" transform="translate(5.188 58.792)">
        <path id="Path_15" data-name="Path 15" d="M11.438,81.208a5.188,5.188,0,0,1,0-10.375,5.188,5.188,0,0,1,0,10.375Zm0-6.917a1.729,1.729,0,1,0,0,3.458,1.729,1.729,0,1,0,0-3.458Z" transform="translate(-6.25 -70.833)"/>
      </g>
      <g id="Group_14" data-name="Group 14" transform="translate(0 72.625)">
        <path id="Path_16" data-name="Path 16" d="M19.021,97.875a1.634,1.634,0,0,1-1.729-1.729V94.417a3.267,3.267,0,0,0-3.458-3.458H6.917a3.267,3.267,0,0,0-3.458,3.458v1.729a1.634,1.634,0,0,1-1.729,1.729A1.634,1.634,0,0,1,0,96.146V94.417A6.937,6.937,0,0,1,6.917,87.5h6.917a6.937,6.937,0,0,1,6.917,6.917v1.729A1.634,1.634,0,0,1,19.021,97.875Z" transform="translate(0 -87.5)"/>
      </g>
      <g id="Group_15" data-name="Group 15" transform="translate(24.208 0)">
        <path id="Path_17" data-name="Path 17" d="M36.775,34.583c-.346,0-.692,0-.692-.346a1.9,1.9,0,0,1-1.037-1.729l1.729-10.375-7.262-7.262a2.592,2.592,0,0,1-.346-1.729c.346-.692.692-1.037,1.383-1.037l10.029-1.729,4.5-9.338C45.075.346,45.767,0,46.458,0a1.9,1.9,0,0,1,1.729,1.038l4.15,9.338,9.683,1.383c.692,0,1.037.692,1.383,1.037s0,1.383-.346,1.729L55.8,21.787l1.729,10.375c0,.692,0,1.383-.692,1.729a1.544,1.544,0,0,1-1.729,0l-8.646-4.5-8.646,4.842a1.27,1.27,0,0,1-1.037.346ZM34.354,14.871,39.888,20.4c.346.346.692,1.038.346,1.383L39.2,29.742l6.571-3.458a1.544,1.544,0,0,1,1.729,0l6.571,3.458-1.383-7.608c0-.692,0-1.038.346-1.383l5.533-5.533L51.3,14.179c-.692,0-1.037-.346-1.383-1.037L46.8,6.225l-3.113,6.917a2.642,2.642,0,0,0-1.729.692Z" transform="translate(-29.167 0)"/>
      </g>
    </g>
  </g>
</svg>
