<svg xmlns="http://www.w3.org/2000/svg" xmlns:xlink="http://www.w3.org/1999/xlink" width="83" height="83" viewBox="0 0 83 83">
  <defs>
    <clipPath id="clip-path">
      <rect id="Rectangle_11" data-name="Rectangle 11" width="83" height="83" transform="translate(801 1971)" fill="#fff" stroke="#707070" stroke-width="1"/>
    </clipPath>
  </defs>
  <g id="Mask_Group_2" data-name="Mask Group 2" transform="translate(-801 -1971)" clip-path="url(#clip-path)">
    <g id="petroleum" transform="translate(801.001 1971)">
      <path id="Path_1" data-name="Path 1" d="M89.537,14.521a1.216,1.216,0,1,0-1.578-1.85L85.334,14.91a1.216,1.216,0,0,0,1.578,1.85Z" transform="translate(-14.435 -2.105)"/>
      <path id="Path_2" data-name="Path 2" d="M84.1,45v1.5a1.216,1.216,0,0,0,2.432,0V45A1.216,1.216,0,0,0,84.1,45Z" transform="translate(-14.298 -7.443)"/>
      <path id="Path_3" data-name="Path 3" d="M9.843,75.308a3.248,3.248,0,1,0,4.593,0,3.252,3.252,0,0,0-4.593,0Zm2.874,2.873a.816.816,0,1,1,0-1.154A.816.816,0,0,1,12.717,78.182Z" transform="translate(-1.513 -12.641)"/>
      <path id="Path_4" data-name="Path 4" d="M25.917,68.42a3.248,3.248,0,1,0-4.593,0A3.246,3.246,0,0,0,25.917,68.42Zm-2.873-2.874a.815.815,0,0,1,1.154,0h0a.816.816,0,1,1-1.154,0Z" transform="translate(-3.465 -10.689)"/>
      <path id="Path_5" data-name="Path 5" d="M16.808,70.506a1.215,1.215,0,0,0,0,1.719l1.281,1.281a1.216,1.216,0,0,0,1.72-1.719l-1.281-1.281a1.216,1.216,0,0,0-1.719,0Z" transform="translate(-2.798 -11.926)"/>
      <path id="Path_6" data-name="Path 6" d="M47.613,22.273h5.661a1.216,1.216,0,0,0,0-2.432H47.613a1.216,1.216,0,0,0,0,2.432Z" transform="translate(-7.889 -3.373)"/>
      <path id="Path_7" data-name="Path 7" d="M81.784,80.569H61.573V75.7a2.288,2.288,0,0,0-2.286-2.286H56.972V68.16a1.9,1.9,0,0,0-1.9-1.9H53.551L47.906,22.646h2.129a2.782,2.782,0,0,0,2.779-2.779V15.151L65.8,16.546V52.6a1.216,1.216,0,0,0,1.825,1.052A21.742,21.742,0,0,0,76.217,43.9a1.216,1.216,0,1,0-2.193-1.051,20.456,20.456,0,0,1-5.792,7.472V11.268l7.833-6.682c2.4,13.877,2.282,25.259-.337,33.839a1.216,1.216,0,1,0,2.325.71c2.776-9.094,2.872-21.094.284-35.667a2.03,2.03,0,0,0-3.315-1.189L66.674,9.4,31.266,2.5A1.216,1.216,0,0,0,30.8,4.884l35,6.825V14.1L8.576,7.956l.289-.526A9.608,9.608,0,0,1,19.157,2.613l6.783,1.323A1.216,1.216,0,0,0,26.4,1.549L19.622.226A12.032,12.032,0,0,0,6.734,6.259L5.566,8.384A1.216,1.216,0,0,0,6.5,10.179l3.892.418V12.87a2.7,2.7,0,0,0,2.7,2.7h1.286V51.592L9.363,56.607a1.216,1.216,0,0,0,1.719,1.719l6.41-6.41A4.373,4.373,0,1,1,23.676,58.1L13.531,68.245a4.373,4.373,0,0,1-6.184-6.184l.3-.3a1.216,1.216,0,0,0-1.719-1.719l-.3.3a6.8,6.8,0,0,0,.745,10.266l-3.24,9.96H1.217a1.216,1.216,0,1,0,0,2.432H81.784a1.216,1.216,0,1,0,0-2.431ZM54.541,73.417H30.571V68.7h23.97Zm-4.367-14.3-12.46-4.834,11.21-4.826ZM48.449,45.791,38.8,41.134l8.442-4.657ZM45.51,23.084,46.7,32.31l-6.757-4.382Zm-3.284-.365-2.905,2.53.327-2.53Zm-3.523,7.3L45.7,34.554l-8.162,4.5ZM37.027,42.977l9.807,4.734L35.8,52.461Zm-1.682,13,13.2,5.123L39.058,66.25l-.024.015H34.013Zm8.781,10.292,6.515-3.538.458,3.538Zm6.256-46.4a.348.348,0,0,1-.348.347H35.078a.348.348,0,0,1-.347-.347V13.21L50.382,14.89v4.977Zm-37.556-7V10.858l5.536.594V12.87a.266.266,0,0,1-.266.266h-5a.266.266,0,0,1-.266-.266ZM25.4,59.82a6.805,6.805,0,0,0-8.586-10.475V15.567H18.1a2.7,2.7,0,0,0,2.7-2.7V11.713L32.3,12.949v6.919a2.782,2.782,0,0,0,2.779,2.779h2.129L31.561,66.265H30.035a1.9,1.9,0,0,0-1.9,1.895v5.257H25.825A2.288,2.288,0,0,0,23.539,75.7v4.867h-4.3l-3.581-11.01ZM5.69,80.569,8.576,71.7a6.827,6.827,0,0,0,5.046-.528l3.058,9.4Zm20.281,0v-4.72H59.142v4.72Z" transform="translate(-0.002 0)"/>
    </g>
  </g>
</svg>
