<svg xmlns="http://www.w3.org/2000/svg" xmlns:xlink="http://www.w3.org/1999/xlink" width="83" height="83" viewBox="0 0 83 83"><defs><clipPath id="clip-path"><rect id="Rectangle_12" width="83" height="83" fill="#fff" stroke="#707070" stroke-width="1" data-name="Rectangle 12" transform="translate(853 1971)"/></clipPath></defs><g id="Mask_Group_3" clip-path="url(#clip-path)" data-name="Mask Group 3" transform="translate(-853 -1971)"><g id="human-resources" transform="translate(854.907 1971)"><path id="Path_8" d="M76.134,50.213v29.75a3.259,3.259,0,0,1-.97,2.1A3.339,3.339,0,0,1,73.046,83H56.237a3.355,3.355,0,0,1-2.1-.942,3.248,3.248,0,0,1-.97-2.118V50.213a6.577,6.577,0,0,1-5.344-6.457V27.36a8.716,8.716,0,0,1,8.694-8.7h.956a8.716,8.716,0,0,1-1.618-5.069V5.464A5.484,5.484,0,0,1,61.31,0h6.677a5.484,5.484,0,0,1,5.459,5.464v8.124a8.716,8.716,0,0,1-1.618,5.069h.956a8.723,8.723,0,0,1,8.7,8.7v16.4a6.585,6.585,0,0,1-5.349,6.456ZM15.431,38.44a1.215,1.215,0,0,1,1.719,1.719l-4.4,4.407a1.218,1.218,0,0,1-1.719,0L8.222,41.757a1.217,1.217,0,0,1,1.723-1.719l1.944,1.944Zm0,24.2a1.215,1.215,0,0,1,1.719,1.719l-4.4,4.407a1.218,1.218,0,0,1-1.719,0L8.222,65.956a1.217,1.217,0,0,1,1.723-1.719l1.944,1.944Zm0-48.4a1.215,1.215,0,0,1,1.719,1.719l-4.4,4.4a1.209,1.209,0,0,1-1.719,0l-2.808-2.8A1.217,1.217,0,1,1,9.945,15.84l1.944,1.944Zm55.584-3.18A9.723,9.723,0,0,1,62.8,8.9a7.17,7.17,0,0,1-4.517,1.048v3.639a6.367,6.367,0,0,0,12.733,0ZM58.282,7.5a4.689,4.689,0,0,0,3.86-1.108,1.215,1.215,0,0,1,1.714.119A7.266,7.266,0,0,0,71.015,8.6V5.464a3.036,3.036,0,0,0-3.028-3.033H61.31a3.036,3.036,0,0,0-3.028,3.033ZM60.06,21.088H56.513A6.3,6.3,0,0,0,50.24,27.36V43.752a4.155,4.155,0,0,0,1.213,2.932,4.089,4.089,0,0,0,2.909,1.209H56.4V30.632a1.215,1.215,0,1,1,2.431,0v17.26H70.464V30.632a1.215,1.215,0,1,1,2.431,0v17.26h2.04a4.126,4.126,0,0,0,4.117-4.136V27.36a6.291,6.291,0,0,0-6.268-6.272H69.232a8.736,8.736,0,0,1-9.172,0ZM26.6,61.719a1.215,1.215,0,1,1,0-2.431H41.771a1.215,1.215,0,0,1,0,2.431Zm0,10.39a1.215,1.215,0,1,1,0-2.431H36.836a1.215,1.215,0,1,1,0,2.431Zm0-5.193a1.215,1.215,0,1,1,0-2.431H41.771a1.215,1.215,0,0,1,0,2.431Zm0-29.4a1.215,1.215,0,1,1,0-2.431H41.771a1.215,1.215,0,0,1,0,2.431Zm0,10.39a1.215,1.215,0,1,1,0-2.431H36.836a1.215,1.215,0,1,1,0,2.431Zm0-5.193a1.215,1.215,0,1,1,0-2.431H41.771a1.215,1.215,0,0,1,0,2.431Zm0-29.4a1.215,1.215,0,1,1,0-2.431H41.771a1.215,1.215,0,0,1,0,2.431Zm0,10.39a1.215,1.215,0,1,1,0-2.431H36.836a1.215,1.215,0,1,1,0,2.431Zm0-5.193a1.215,1.215,0,1,1,0-2.431H41.771a1.215,1.215,0,0,1,0,2.431ZM2.3,57.57a2.26,2.26,0,0,1,2.256-2.256H20.817a2.261,2.261,0,0,1,2.261,2.256V73.832a2.267,2.267,0,0,1-2.261,2.256H4.554A2.269,2.269,0,0,1,2.3,73.832Zm18.344.175H4.729V73.658H20.642ZM2.3,9.172A2.27,2.27,0,0,1,4.554,6.911H20.817a2.271,2.271,0,0,1,2.261,2.261V25.435a2.267,2.267,0,0,1-2.261,2.256H4.554A2.263,2.263,0,0,1,2.3,25.435Zm18.344.175H4.729V25.26H20.642ZM2.3,33.371a2.263,2.263,0,0,1,2.256-2.256H20.817a2.261,2.261,0,0,1,2.261,2.256V49.634a2.264,2.264,0,0,1-2.261,2.256H4.554A2.263,2.263,0,0,1,2.3,49.634Zm18.344.175H4.729V49.459H20.642ZM63.433,80.569V55.741a1.215,1.215,0,0,1,2.431,0V80.569h7.127a.872.872,0,0,0,.712-.68V50.323H55.594V79.889a.872.872,0,0,0,.712.68Z" data-name="Path 8" transform="translate(-2.298 0)"/></g></g></svg>